<svg width="96" height="96" viewBox="0 0 96 96" fill="none" xmlns="http://www.w3.org/2000/svg">
<path d="M28.2 12H67.8C76.748 12 84 19.252 84 28.2V67.8C84 76.746 76.748 84 67.8 84H28.2C19.252 84 12 76.746 12 67.8V28.2C12 19.252 19.252 12 28.2 12Z" fill="white"/>
<path d="M48 27C44.8761 27 42.3445 29.5295 42.3445 32.6479C42.3445 35.7664 44.8773 38.2934 48 38.2934C51.1227 38.2934 53.6555 35.7664 53.6555 32.6479C53.6555 29.5295 51.1227 27.0012 48 27ZM40.6531 39.7066C37.5304 39.7066 35 42.2348 35 45.3545C35 48.473 37.5304 51 40.6531 51C43.7758 51 46.3087 48.473 46.3087 45.3545C46.3087 42.2348 43.777 39.7066 40.6531 39.7066ZM55.3469 39.7066C52.2242 39.7066 49.6913 42.236 49.6913 45.3545C49.6913 48.473 52.2242 51 55.3469 51C58.4696 51 61 48.473 61 45.3545C60.9988 42.2348 58.4696 39.7066 55.3469 39.7066Z" fill="#F06A6A"/>
<path d="M34.875 58.8184C34.875 56.9604 36.5292 56.1934 38.0742 56.1934C39.0522 56.1934 40.0628 56.5165 40.7168 56.9785C40.9418 57.1495 40.8047 57.3457 40.8047 57.3457L40.1797 58.2383C40.1097 58.3393 39.9865 58.4244 39.8105 58.3164C39.6345 58.2074 39.0162 57.7695 38.0742 57.7695C37.1322 57.7695 36.5645 58.2041 36.5645 58.7441C36.5645 59.3911 37.302 59.5964 38.166 59.8164C39.672 60.2224 41.3145 60.7096 41.3145 62.5566C41.3145 64.1936 39.7847 65.2051 38.0938 65.2051C36.8118 65.2051 35.7197 64.84 34.8047 64.168C34.6137 63.977 34.748 63.8008 34.748 63.8008L35.3691 62.9121C35.4931 62.7471 35.6527 62.8055 35.7227 62.8535C36.4767 63.3765 37.3008 63.6309 38.0918 63.6309C38.8458 63.6309 39.623 63.2386 39.623 62.5586C39.623 61.6506 37.9264 61.5095 36.8594 61.1465C35.7924 60.7835 34.875 60.0324 34.875 58.8184Z" fill="black"/>
<path d="M55.3535 57.418C55.6785 56.86 56.5987 56.2129 57.7207 56.2129C60.0717 56.2129 61.5469 57.7909 61.5469 60.1289V64.2773L61.5488 64.8008V64.8027C61.5458 64.8527 61.528 64.8985 61.5 64.9375L61.498 64.9395C61.489 64.9515 61.4797 64.9627 61.4688 64.9727L61.4629 64.9785C61.4539 64.9865 61.4436 64.993 61.4336 65C61.4286 65.004 61.423 65.0068 61.418 65.0098C61.41 65.0148 61.3996 65.0194 61.3906 65.0234C61.3816 65.0274 61.3723 65.0302 61.3633 65.0332C61.3573 65.0352 61.3508 65.0381 61.3438 65.0391C61.3267 65.0421 61.31 65.043 61.293 65.043H60.1621C60.0251 65.043 59.9133 64.9358 59.9062 64.8008H59.9043V64.0332C59.9043 64.0299 59.9045 64.0265 59.9043 64.0234L59.9023 60.0645C59.9023 58.8085 58.8859 57.7891 57.6309 57.7891C56.3749 57.7891 55.3574 58.8085 55.3574 60.0645V64.8008C55.3544 64.8508 55.3366 64.8965 55.3086 64.9355C55.2986 64.9475 55.2883 64.9597 55.2773 64.9707L55.2734 64.9746C55.2634 64.9836 55.2512 64.993 55.2402 65C55.2352 65.003 55.2316 65.0048 55.2266 65.0078C55.2166 65.0128 55.2073 65.0194 55.1973 65.0234C55.1893 65.0264 55.1818 65.0282 55.1738 65.0312C55.1658 65.0333 55.1574 65.0361 55.1504 65.0371C55.1334 65.0401 55.1166 65.041 55.0996 65.041H53.9707C53.8337 65.041 53.7218 64.9338 53.7148 64.7988H53.7129V64.0215V64.0195V56.7812C53.7129 56.6403 53.8297 56.5234 53.9707 56.5234H54.3359C55.0529 56.5234 55.2835 56.982 55.3535 57.418Z" fill="black"/>
<path fill-rule="evenodd" clip-rule="evenodd" d="M28.5039 56.1934C26.0159 56.1934 24 58.2102 24 60.6992C24 63.1882 26.0169 65.207 28.5039 65.207C29.5979 65.207 30.7909 64.782 31.3809 64C31.4209 64.45 31.7793 65.0234 32.4023 65.0234H32.7676C32.9086 65.0234 33.0254 64.9066 33.0254 64.7656V56.748H33.0234C33.0164 56.613 32.9046 56.5059 32.7676 56.5059H31.6367C31.4997 56.5059 31.3889 56.613 31.3809 56.748V57.4004C30.6889 56.5474 29.5979 56.1934 28.5039 56.1934ZM31.3711 60.6992C31.3711 59.0812 30.0898 57.7695 28.5078 57.7695C26.9258 57.7695 25.6445 59.0812 25.6445 60.6992C25.6445 62.3172 26.9258 63.6309 28.5078 63.6309C30.0888 63.6309 31.3711 62.3172 31.3711 60.6992Z" fill="black"/>
<path fill-rule="evenodd" clip-rule="evenodd" d="M46.9062 56.1934C44.4193 56.1934 42.4043 58.2102 42.4043 60.6992C42.4043 63.1882 44.4193 65.207 46.9062 65.207C48.0002 65.207 49.1932 64.782 49.7832 64C49.8232 64.45 50.1836 65.0234 50.8066 65.0234H51.1719C51.3129 65.0234 51.4277 64.9066 51.4277 64.7656V56.748C51.4207 56.613 51.3089 56.5059 51.1719 56.5059H50.041C49.904 56.5059 49.7932 56.613 49.7852 56.748H49.7832V57.4004C49.0912 56.5474 48.0002 56.1934 46.9062 56.1934ZM49.7754 60.6992C49.7754 59.0812 48.4922 57.7695 46.9102 57.7695C45.3282 57.7695 44.0469 59.0812 44.0469 60.6992C44.0469 62.3172 45.3282 63.6309 46.9102 63.6309C48.4912 63.6309 49.7754 62.3172 49.7754 60.6992Z" fill="black"/>
<path fill-rule="evenodd" clip-rule="evenodd" d="M67.4785 56.1934C64.9915 56.1934 62.9746 58.2102 62.9746 60.6992C62.9746 63.1882 64.9915 65.207 67.4785 65.207C68.5725 65.207 69.7655 64.782 70.3555 64C70.3945 64.45 70.7559 65.0234 71.3789 65.0234H71.7422C71.8832 65.0234 72 64.9066 72 64.7656V56.748H71.998C71.991 56.613 71.8792 56.5059 71.7422 56.5059H70.6113C70.4743 56.5059 70.3635 56.613 70.3555 56.748V57.4004C69.6635 56.5474 68.5725 56.1934 67.4785 56.1934ZM70.3477 60.6992C70.3477 59.0812 69.0644 57.7695 67.4824 57.7695C65.9004 57.7695 64.6191 59.0812 64.6191 60.6992C64.6191 62.3172 65.9004 63.6309 67.4824 63.6309C69.0644 63.6309 70.3477 62.3172 70.3477 60.6992Z" fill="black"/>
</svg>
