<svg width="96" height="96" viewBox="0 0 96 96" fill="none" xmlns="http://www.w3.org/2000/svg">
<path d="M45.806 6.57199C47.164 5.80999 48.836 5.80999 50.192 6.57199C56.902 10.338 77.094 21.674 83.806 25.44C85.164 26.2 86 27.608 86 29.132C86 36.664 86 59.334 86 66.866C86 68.39 85.164 69.798 83.806 70.56C77.096 74.326 56.904 85.662 50.192 89.428C48.834 90.19 47.162 90.19 45.806 89.428C39.096 85.662 18.904 74.326 12.192 70.56C10.836 69.798 10 68.392 10 66.868C10 59.336 10 36.666 10 29.134C10 27.61 10.836 26.202 12.194 25.44C18.902 21.674 39.098 10.338 45.806 6.57199Z" fill="#672079"/>
<path d="M10.608 68.808C10.076 68.096 10 67.42 10 66.51C10 59.022 10 36.482 10 28.992C10 27.476 10.834 26.076 12.188 25.32C18.874 21.576 38.998 10.306 45.684 6.56001C47.038 5.80201 48.872 5.81801 50.226 6.57601C56.912 10.32 76.968 21.494 83.654 25.238C84.194 25.542 84.606 25.908 84.974 26.39L10.608 68.808Z" fill="#9B4F96"/>
<path d="M48 20C32.54 20 20 32.54 20 48C20 63.46 32.54 76 48 76C63.46 76 76 63.46 76 48C76 32.54 63.46 20 48 20ZM48 62C40.28 62 34 55.72 34 48C34 40.28 40.28 34 48 34C55.72 34 62 40.28 62 48C62 55.72 55.72 62 48 62Z" fill="white"/>
<path d="M84.97 26.41C86.002 27.376 85.982 28.832 85.982 29.978C85.982 37.568 85.918 59.156 86 66.746C86.008 67.538 85.746 68.372 85.354 69L47.186 48L84.97 26.41Z" fill="#813787"/>
<path d="M68 40H70V56H68V40ZM74 40H76V56H74V40Z" fill="white"/>
<path d="M64 50H80V52H64V50ZM64 44H80V46H64V44Z" fill="white"/>
</svg>
