<svg width="96" height="96" viewBox="0 0 96 96" fill="none" xmlns="http://www.w3.org/2000/svg">
<g clip-path="url(#clip0_212_8)">
<path d="M95.054 39.6941C94.794 39.4901 92.364 37.6801 87.238 37.6801C85.884 37.6861 84.534 37.8001 83.2 38.0221C82.208 31.3141 76.762 28.1621 76.51 28.0161L75.134 27.2321L74.228 28.5201C73.094 30.2521 72.092 32.0401 71.606 34.0461C70.688 37.8761 71.246 41.4721 73.218 44.5461C70.834 45.8561 66.772 45.9721 66 46.0001H3.16401C1.51201 46.0021 0.172014 47.3201 0.162014 48.9481C0.0880138 54.4141 0.868014 60.0541 2.77401 65.1861C4.95201 70.8221 8.19401 74.9741 12.41 77.5141C17.134 80.3681 24.81 82.0001 33.512 82.0001C37.442 82.0121 41.366 81.6621 45.23 80.9521C50.602 79.9781 55.772 78.1261 60.524 75.4721C64.44 73.2341 67.964 70.3881 70.962 67.0421C75.972 61.4461 78.956 55.2161 81.176 49.6781C81.474 49.6781 81.772 49.6781 82.06 49.6781C87.546 49.6781 90.918 47.5121 92.778 45.6981C94.014 44.5401 94.98 43.1301 95.606 41.5681L96 40.4321L95.054 39.6941Z" fill="#2395EC"/>
<path d="M16 44H10C8.896 44 8 43.104 8 42V36C8 34.896 8.896 34 10 34H16C17.104 34 18 34.896 18 36V42C18 43.104 17.104 44 16 44Z" fill="#2395EC"/>
<path d="M28 44H22C20.896 44 20 43.104 20 42V36C20 34.896 20.896 34 22 34H28C29.104 34 30 34.896 30 36V42C30 43.104 29.104 44 28 44Z" fill="#2395EC"/>
<path d="M40 44H34C32.896 44 32 43.104 32 42V36C32 34.896 32.896 34 34 34H40C41.104 34 42 34.896 42 36V42C42 43.104 41.104 44 40 44Z" fill="#2395EC"/>
<path d="M52 44H46C44.896 44 44 43.104 44 42V36C44 34.896 44.896 34 46 34H52C53.104 34 54 34.896 54 36V42C54 43.104 53.104 44 52 44Z" fill="#2395EC"/>
<path d="M28 32H22C20.896 32 20 31.104 20 30V24C20 22.896 20.896 22 22 22H28C29.104 22 30 22.896 30 24V30C30 31.104 29.104 32 28 32Z" fill="#2395EC"/>
<path d="M40 32H34C32.896 32 32 31.104 32 30V24C32 22.896 32.896 22 34 22H40C41.104 22 42 22.896 42 24V30C42 31.104 41.104 32 40 32Z" fill="#2395EC"/>
<path d="M52 32H46C44.896 32 44 31.104 44 30V24C44 22.896 44.896 22 46 22H52C53.104 22 54 22.896 54 24V30C54 31.104 53.104 32 52 32Z" fill="#2395EC"/>
<path d="M52 20H46C44.896 20 44 19.104 44 18V12C44 10.896 44.896 10 46 10H52C53.104 10 54 10.896 54 12V18C54 19.104 53.104 20 52 20Z" fill="#2395EC"/>
<path d="M64 44H58C56.896 44 56 43.104 56 42V36C56 34.896 56.896 34 58 34H64C65.104 34 66 34.896 66 36V42C66 43.104 65.104 44 64 44Z" fill="#2395EC"/>
</g>
<defs>
<clipPath id="clip0_212_8">
<rect width="96" height="96" fill="white"/>
</clipPath>
</defs>
</svg>
