<svg width="96" height="96" viewBox="0 0 96 96" fill="none" xmlns="http://www.w3.org/2000/svg">
<path d="M81.503 8H14.497C10.9088 8 8 10.9012 8 14.48V81.52C8 85.0988 10.9088 88 14.497 88H81.503C85.0912 88 88 85.0988 88 81.52V14.48C88 10.9012 85.0912 8 81.503 8Z" fill="#512BD4"/>
<path d="M18.7621 59.1C18.2901 59.108 17.8361 58.918 17.5121 58.576C17.1781 58.246 16.9941 57.796 17.0001 57.326C16.9961 56.858 17.1821 56.408 17.5121 56.076C17.8341 55.728 18.2881 55.532 18.7621 55.538C19.2361 55.536 19.6881 55.732 20.0121 56.076C20.3501 56.404 20.5381 56.856 20.5361 57.326C20.5401 57.798 20.3501 58.25 20.0121 58.576C19.6841 58.914 19.2321 59.104 18.7621 59.1Z" fill="white"/>
<path d="M43.5981 58.788H40.3221L28.6101 40.614C28.3181 40.166 28.0761 39.688 27.8841 39.19H27.7841C27.8961 40.228 27.9381 41.272 27.9081 42.314V58.788H25.2461V36H28.7081L40.1081 53.85C40.5821 54.592 40.8921 55.1 41.0321 55.376H41.0941C40.9621 54.264 40.9081 53.146 40.9321 52.026V36.002H43.5941V58.788H43.5981Z" fill="white"/>
<path d="M61.6241 58.788H49.5121V36H61.0621V38.412H52.2381V45.988H60.4641V48.388H52.2381V56.288H61.6381L61.6241 58.788Z" fill="white"/>
<path d="M79.5121 38.414H72.8881V58.79H70.2261V38.414H63.6761V36.002H79.5141L79.5121 38.414Z" fill="white"/>
</svg>
