<svg width="96" height="96" viewBox="0 0 96 96" fill="none" xmlns="http://www.w3.org/2000/svg">
<path d="M76.386 36.718C74.844 31.212 71.748 26.364 67.592 22.658L58.396 31.854C61.75 34.584 64.012 38.602 64.424 43.15V46.166C64.476 46.166 64.524 46.15 64.576 46.15C69.22 46.15 73 49.93 73 54.574C73 59.218 69.22 63 64.576 63C64.524 63 64.476 62.986 64.424 62.984V63H51.092H48V76H64.424V75.992C64.476 75.992 64.524 76 64.576 76C76.39 76 86 66.388 86 54.576C86 47.126 82.172 40.558 76.386 36.718Z" fill="#1976D2"/>
<path opacity="0.5" d="M39.12 51.18L48.56 41.74C48.552 41.73 48.544 41.722 48.538 41.714L39.104 51.148C39.108 51.158 39.114 51.168 39.12 51.18Z" fill="#FFE082"/>
<path opacity="0.5" d="M39.12 51.18L48.56 41.74C48.552 41.73 48.544 41.722 48.538 41.714L39.104 51.148C39.108 51.158 39.114 51.168 39.12 51.18Z" fill="#90CAF9"/>
<path d="M48 15.152C31.734 15.152 18.5 28.386 18.5 44.652C18.5 45.118 18.548 45.572 18.57 46.032H31.57C31.532 45.576 31.5 45.118 31.5 44.652C31.5 35.554 38.902 28.152 48 28.152C51.938 28.152 55.556 29.544 58.396 31.854L67.592 22.658C62.376 18.006 55.522 15.152 48 15.152Z" fill="#FF3D00"/>
<path opacity="0.5" d="M31.424 63H31.42C30.198 63 29.044 62.726 27.996 62.254L18.576 71.674C22.162 74.376 26.602 76 31.42 76H31.424H48V63H31.424Z" fill="#90CAF9"/>
<path d="M31.424 63H31.42C30.198 63 29.044 62.726 27.996 62.254L18.576 71.674C22.162 74.376 26.602 76 31.42 76H31.424H48V63H31.424Z" fill="#4CAF50"/>
<path d="M23 54.58C23 49.94 26.78 46.16 31.42 46.16C34.826 46.16 37.776 48.206 39.102 51.148L48.536 41.714C44.614 36.51 38.406 33.16 31.418 33.16C19.62 33.16 10 42.76 10 54.58C10 61.562 13.382 67.76 18.576 71.674L27.996 62.254C25.06 60.938 23 57.998 23 54.58Z" fill="#FFC107"/>
</svg>
