<svg width="96" height="96" viewBox="0 0 96 96" fill="none" xmlns="http://www.w3.org/2000/svg">
<path d="M10 21.1219C10 14.9795 14.9795 10 21.122 10H74.8781C81.0205 10 86 14.9795 86 21.122V74.8781C86 81.0205 81.0205 86 74.8781 86H21.1219C14.9795 86 10 81.0205 10 74.8781V21.1219Z" fill="url(#paint0_linear_1_1053)"/>
<path d="M55.4322 86C54.8075 83.3186 54.2871 80.6089 53.8926 77.8782C53.6735 76.5636 53.5201 75.227 53.3668 73.8905C53.3558 73.8357 53.3503 73.7755 53.3449 73.7152C53.3394 73.655 53.3339 73.5947 53.323 73.5399C52.6656 67.2298 52.5999 60.8319 53.1258 54.4999H44.6684C43.8139 54.4999 42.9813 54.1493 42.4116 53.5577C41.7981 52.9442 41.4914 52.1335 41.5133 51.279C41.7324 44.3116 42.5212 37.3441 43.9015 30.53C45.1066 24.5704 46.7718 18.6765 48.8532 12.9579C49.2038 11.972 49.5762 10.9861 49.9487 10.0002L49.9622 10.0053L49.9623 10H74.8781C81.0205 10 86 14.9795 86 21.122V74.8781C86 81.0205 81.0205 86 74.8781 86H55.4322Z" fill="url(#paint1_linear_1_1053)"/>
<path d="M72.3591 63.6743C66.4415 69.108 60.0946 71.425 55.2598 72.3887C53.897 72.6553 52.6463 72.8193 51.5636 72.9014C50.5182 73.0039 49.6222 73.0244 48.9315 73.0244C36.9657 73.0244 28.5653 66.4834 25.5039 63.6743C24.7012 62.9361 24.6079 61.6443 25.2612 60.7831C25.9332 59.9219 27.1093 59.7989 27.8933 60.5166C30.6374 63.0591 38.1791 68.9235 48.9315 68.9235C49.5102 68.9235 50.2382 68.903 51.0783 68.8414C52.1423 68.7594 53.393 68.5954 54.7931 68.3083C59.1239 67.4266 64.7241 65.3351 69.951 60.5166C70.7537 59.7989 71.9298 59.9219 72.5831 60.7831C73.2551 61.6443 73.1431 62.9361 72.3591 63.6743Z" fill="#1C1C1C"/>
<path d="M32.2439 32.1556V37.8931C32.2439 38.8641 31.4098 39.6585 30.3902 39.6585C29.3707 39.6585 28.5366 38.8641 28.5366 37.8931V32.1556C28.5366 31.1847 29.3707 30.3902 30.3902 30.3902C31.4098 30.3902 32.2439 31.1847 32.2439 32.1556Z" fill="#1C1C1C"/>
<path d="M67.4634 32.1556V37.8931C67.4634 38.8641 66.6293 39.6585 65.6098 39.6585C64.5902 39.6585 63.7561 38.8641 63.7561 37.8931V32.1556C63.7561 31.1847 64.5902 30.3902 65.6098 30.3902C66.6293 30.3902 67.4634 31.1847 67.4634 32.1556Z" fill="#1C1C1C"/>
<defs>
<linearGradient id="paint0_linear_1_1053" x1="48" y1="10" x2="48" y2="86" gradientUnits="userSpaceOnUse">
<stop stop-color="#20C0F2"/>
<stop offset="1" stop-color="#1C64E5"/>
</linearGradient>
<linearGradient id="paint1_linear_1_1053" x1="48" y1="10" x2="48" y2="86" gradientUnits="userSpaceOnUse">
<stop stop-color="#E0E3E8"/>
<stop offset="1" stop-color="#CAD6E1"/>
</linearGradient>
</defs>
</svg>
