<svg width="96" height="96" viewBox="0 0 96 96" fill="none" xmlns="http://www.w3.org/2000/svg">
<path d="M8 21.8293V73.6455C8 81.5733 14.4127 88 22.3231 88H73.6769C81.5873 88 88 81.5733 88 73.6455V21.8293C88 19.8957 86.4359 18.3282 84.5066 18.3282H11.4934C9.56407 18.3282 8 19.8957 8 21.8293Z" fill="url(#paint0_linear_1_1020)"/>
<path d="M46.7773 36.5339H31.4061V51.9387H46.7773V36.5339Z" fill="#F25022"/>
<path d="M64.7686 36.5339H49.3974V51.9387H64.7686V36.5339Z" fill="#7FBA00"/>
<path d="M46.7773 54.7396H31.4061V70.1444H46.7773V54.7396Z" fill="#00A4EF"/>
<path d="M64.7686 54.7396H49.3974V70.1444H64.7686V54.7396Z" fill="#FFB900"/>
<path d="M31.4061 8C28.5124 8 26.1671 10.3517 26.1685 13.2516L26.1723 21.1335C26.173 22.5815 27.3444 23.7549 28.7892 23.7549C30.2345 23.7549 31.4061 22.5807 31.4061 21.1323V8Z" fill="url(#paint1_linear_1_1020)"/>
<path d="M64.7686 8C67.6626 8 70.0087 10.3512 70.0087 13.2516V21.1291C70.0087 22.5793 68.8357 23.7549 67.3886 23.7549C65.9416 23.7549 64.7686 22.5793 64.7686 21.1291V8Z" fill="url(#paint2_linear_1_1020)"/>
<path d="M64.7686 8H31.4061L31.4061 13.2516H64.7686L64.7686 8Z" fill="url(#paint3_linear_1_1020)"/>
<defs>
<linearGradient id="paint0_linear_1_1020" x1="48" y1="18.3282" x2="48" y2="88" gradientUnits="userSpaceOnUse">
<stop stop-color="#0D5EA6"/>
<stop offset="1" stop-color="#213E66"/>
</linearGradient>
<linearGradient id="paint1_linear_1_1020" x1="48.078" y1="8" x2="48.078" y2="23.7549" gradientUnits="userSpaceOnUse">
<stop stop-color="#30D9FB"/>
<stop offset="1" stop-color="#0095D5"/>
</linearGradient>
<linearGradient id="paint2_linear_1_1020" x1="48.0886" y1="8" x2="48.0886" y2="23.7549" gradientUnits="userSpaceOnUse">
<stop stop-color="#30D9FB"/>
<stop offset="1" stop-color="#0095D5"/>
</linearGradient>
<linearGradient id="paint3_linear_1_1020" x1="48.0874" y1="8" x2="48.0874" y2="13.2516" gradientUnits="userSpaceOnUse">
<stop stop-color="#23BAFA"/>
<stop offset="1" stop-color="#1091E7"/>
</linearGradient>
</defs>
</svg>
