<svg width="96" height="96" viewBox="0 0 96 96" fill="none" xmlns="http://www.w3.org/2000/svg">
<path d="M46.168 22.554C42.902 17.656 42.196 11.11 42.042 8.42C33.746 10.214 25.504 13.432 25.98 15.802C26.04 16.1 26.416 16.458 27.04 16.806L26.064 18.552C24.872 17.884 24.202 17.114 24.02 16.194C23.482 13.512 26.52 11.086 33.304 8.776C37.936 7.198 42.608 6.256 42.806 6.218L44 5.978V7.2C44 7.284 44.052 15.776 47.832 21.446L46.168 22.554Z" fill="#CFD8DC"/>
<path d="M49.502 86H49C32.616 86 14.382 80.854 12.228 72.242C10.914 66.982 15.212 61.17 24.656 55.44L25.696 57.148C17.198 62.306 13.104 67.492 14.17 71.758C16.04 79.234 33.32 83.894 48.476 83.998C50.278 81.304 59.96 65.478 54.434 44.252L56.368 43.748C62.666 67.932 49.932 85.422 49.804 85.596L49.502 86Z" fill="#CFD8DC"/>
<path d="M19.862 78.612C18.784 78.612 18.25 78.494 18.162 78.472C17.81 78.386 17.534 78.116 17.438 77.768C17.34 77.42 17.44 77.046 17.696 76.792C17.84 76.648 32.09 62.376 34.014 50.836L35.986 51.164C34.332 61.092 24.556 72.41 20.674 76.578C24.552 76.356 34.344 74.54 53.142 64.018C38.472 62.41 36.152 50.666 36.128 50.54L38.094 50.178C38.188 50.67 40.546 62.2 56.582 62.2C56.588 62.2 56.592 62.2 56.598 62.2C57.052 62.2 57.446 62.504 57.562 62.94C57.682 63.376 57.49 63.838 57.1 64.066C34.63 77.084 23.734 78.61 19.862 78.612Z" fill="#CFD8DC"/>
<path d="M29.048 83.4C28.634 83.4 28.258 83.144 28.112 82.75C27.954 82.328 28.098 81.85 28.466 81.586C28.534 81.536 32.092 78.91 35.878 73.13C34.422 72.486 32.948 71.734 31.486 70.856C29.71 69.79 28.368 68.646 27.366 67.474C22.226 68.83 17.482 69.366 13.316 69.012L13.484 67.02C17.236 67.338 21.502 66.894 26.126 65.74C22.98 60.364 25.868 55.028 25.908 54.956L27.656 55.93C27.522 56.174 25.126 60.67 28.154 65.196C32.556 63.932 37.252 62.062 42.112 59.632C43.23 55.962 44.104 51.788 44.562 47.08C44.594 46.758 44.778 46.472 45.058 46.31C45.338 46.148 45.68 46.134 45.974 46.268C46.038 46.298 52.502 49.25 57.182 51.176C57.522 51.316 57.758 51.632 57.796 51.998C57.836 52.364 57.67 52.72 57.364 52.928C52.786 56.048 48.238 58.754 43.808 61.012C42.404 65.462 40.666 69.166 38.89 72.194C46.294 74.96 52.72 75.002 52.802 75.002C53.258 75.002 53.656 75.31 53.77 75.752C53.884 76.194 53.686 76.656 53.288 76.878C44.208 81.922 29.754 83.342 29.144 83.4C29.112 83.398 29.08 83.4 29.048 83.4ZM37.818 73.934C35.738 77.162 33.694 79.48 32.166 80.994C36.162 80.406 43.168 79.118 48.982 76.716C46.198 76.374 42.168 75.614 37.818 73.934ZM29.534 66.862C30.32 67.646 31.3 68.412 32.514 69.142C33.986 70.026 35.48 70.776 36.954 71.412C38.462 68.884 39.956 65.85 41.238 62.276C37.196 64.2 33.272 65.736 29.534 66.862ZM46.404 48.658C45.994 52.194 45.362 55.42 44.578 58.358C47.898 56.588 51.286 54.566 54.702 52.306C51.604 50.994 48.198 49.468 46.404 48.658Z" fill="#CFD8DC"/>
<path d="M35.848 21.2C35.614 21.2 35.382 21.116 35.198 20.96C31.978 18.204 28.188 12.596 28.028 12.358C27.77 11.976 27.81 11.466 28.12 11.126C28.428 10.784 28.936 10.704 29.336 10.922C29.358 10.928 31.212 11.692 43.77 13.784C44.132 13.844 44.43 14.096 44.55 14.44C44.672 14.784 44.594 15.168 44.35 15.44C40.834 19.346 36.392 21.066 36.204 21.136C36.088 21.178 35.966 21.2 35.848 21.2ZM31.294 13.492C32.556 15.19 34.374 17.484 36.038 19.03C37.06 18.564 39.352 17.394 41.526 15.434C36.36 14.552 33.208 13.924 31.294 13.492Z" fill="#CFD8DC"/>
<path d="M43.686 48.8C43.55 48.8 43.412 48.772 43.284 48.716C42.886 48.54 42.646 48.128 42.692 47.696C43.276 42.198 34.84 39.992 34.754 39.972C34.406 39.884 34.13 39.614 34.036 39.268C33.942 38.922 34.04 38.55 34.294 38.296C34.708 37.882 44.572 28.1 56.948 22.728C57.294 22.578 57.686 22.634 57.978 22.868C58.268 23.104 58.402 23.482 58.326 23.846C55.954 35.334 44.906 47.934 44.438 48.464C44.24 48.682 43.964 48.8 43.686 48.8ZM36.91 38.57C39.278 39.46 43.426 41.52 44.476 45.282C47.374 41.666 53.56 33.336 55.87 25.414C47.096 29.634 39.708 35.998 36.91 38.57Z" fill="#B71C1C"/>
<path d="M26.158 56.72L25.208 54.96C28.974 52.93 33.288 49.194 36.822 44.852C33.814 46.912 32.092 48.322 32.038 48.368L30.76 46.828C30.838 46.764 34.288 43.934 40.022 40.388C41.596 37.856 42.806 35.252 43.428 32.756C43.534 32.332 43.626 31.922 43.7 31.526C39.85 30.152 36.298 29.338 33.858 28.988C33.488 28.936 33.18 28.682 33.056 28.332C32.932 27.982 33.014 27.59 33.264 27.318C33.434 27.134 37.496 22.782 42.572 20.392C42.966 20.206 43.438 20.298 43.734 20.62C43.868 20.766 46.614 23.85 45.916 30.23C48.226 31.13 50.606 32.224 52.898 33.526C58.416 31.046 64.682 28.814 71.356 27.466C71.7 27.398 72.082 27.522 72.318 27.802C72.552 28.082 72.616 28.468 72.484 28.808C69.884 35.472 62.912 42.59 62.616 42.89C62.414 43.094 62.138 43.196 61.85 43.186C61.564 43.17 61.3 43.034 61.12 42.81C58.88 39.994 55.952 37.662 52.794 35.764C48.444 37.772 44.592 39.92 41.426 41.862C37.386 48.168 31.288 53.958 26.158 56.72ZM54.984 34.792C57.564 36.456 59.966 38.412 61.952 40.688C63.608 38.892 67.582 34.352 69.836 29.844C64.536 31.064 59.52 32.83 54.984 34.792ZM45.598 32.244C45.532 32.57 45.456 32.904 45.372 33.244C44.952 34.922 44.284 36.646 43.428 38.366C45.62 37.114 48.046 35.822 50.664 34.57C48.988 33.682 47.278 32.91 45.598 32.244ZM36.096 27.344C38.318 27.78 41.056 28.492 43.978 29.516C44.282 25.83 43.286 23.572 42.684 22.572C39.932 24.008 37.522 26.028 36.096 27.344Z" fill="#B71C1C"/>
<path d="M36.1001 37C36.1001 45.76 28.8001 52.72 23.5401 57.8C22.6601 58.66 19.6801 58.8 19.6801 58.8C20.4201 58.04 21.2601 57.24 22.1601 56.38C27.1601 51.54 34.1001 44.92 34.1001 37C34.1001 27.62 30.3201 23.92 27.3401 20.96C26.0201 19.62 24.9001 18.34 24.2201 16.78L24.8401 16.52C25.5201 16.82 26.3001 17.16 26.9001 17.42C27.3801 18.12 28.0201 18.8 28.7601 19.54C31.8201 22.6 36.1001 26.8 36.1001 37Z" fill="#B71C1C"/>
<path d="M85.87 39.588C85.87 39.588 84.66 39.76 84.32 39.8C66.8 41.74 48.72 46.78 38.38 50.92C34.64 52.42 30.76 54.24 27.22 56.28C27.2 56.3 27.18 56.3 27.14 56.32C25.06 57.52 20 60 15.9 62.18C21.9 55.8 33.14 50.88 37.62 49.08C47.76 45.02 65.18 40.12 82.32 38.02C80.3 35.66 75.36 30.66 65.64 26.94C59.96 24.74 51.32 23.5 43.7 22.4C31.58 20.66 24.68 19.5 24.02 16.2C23.88 15.54 23.98 14.88 24.28 14.24C24.94 15.32 25.88 16.08 26.5 16.52C26.8 16.72 27.02 16.84 27.1 16.88L27.12 16.9C29.96 18.4 37.62 19.5 44 20.42C51.72 21.54 60.46 22.8 66.36 25.06C80.1 30.36 84.84 37.94 85.04 38.26C85.22 38.56 85.87 39.588 85.87 39.588Z" fill="#B71C1C"/>
</svg>
