<svg width="96" height="96" viewBox="0 0 96 96" fill="none" xmlns="http://www.w3.org/2000/svg">
<path d="M0.004 70.082H3.844V55.912L9.178 68.026C9.836 69.536 10.736 70.07 12.502 70.07C14.268 70.07 15.132 69.536 15.79 68.026L21.124 56.222V70.082H24.964V55.566C24.964 54.172 24.41 53.496 23.266 53.148C20.532 52.288 18.696 53.03 17.866 54.892L12.396 67.212L7.098 54.892C6.302 53.032 4.434 52.288 1.698 53.148C0.554 53.496 0 54.17 0 55.564V70.08L0.004 70.082ZM26.882 58.562H30.722V66.672C30.692 67.072 30.85 68.134 32.702 68.162C33.646 68.178 38.344 68.162 38.402 68.162V58.562H42.242C42.258 58.562 42.242 70.498 42.242 70.548C42.262 73.492 38.586 73.872 36.896 73.922H26.884V72.002C26.904 72.002 36.458 72.004 36.486 72.002C38.662 71.772 38.404 70.574 38.404 70.21V70.082H32.38C29.04 70.052 26.91 68.58 26.886 66.902C26.882 66.746 26.958 58.634 26.882 58.562Z" fill="url(#paint0_linear_212_39)"/>
<path d="M44.162 70.082H53.776C55.036 70.082 56.26 69.818 57.232 69.362C58.852 68.618 59.52 67.612 59.52 66.29V63.554C59.52 60.602 55.86 60.482 53.76 60.482H49.92C48.41 60.482 48.18 59.57 48 58.562V56.642C48.18 55.874 48.516 54.842 49.846 54.722C51.392 54.722 59.518 54.722 59.518 54.722V52.802H50.386C48.876 52.802 44.158 52.982 44.158 56.642V59.016C44.158 60.696 45.634 62.064 48.838 62.4C49.198 62.424 49.558 62.448 49.916 62.448C49.916 62.448 53.648 62.376 53.756 62.4C55.916 62.4 55.676 64.08 55.676 64.32V66.24C55.676 66.504 55.616 68.16 53.734 68.16C53.59 68.16 44.156 68.16 44.156 68.16V70.082H44.162ZM80.64 66.16C80.64 68.478 81.95 69.778 85.424 70.038C85.748 70.06 86.074 70.08 86.4 70.08H96V68.16H87.13C85.148 68.16 84.48 67.328 84.48 66.138V52.8H80.64V66.16ZM61.408 66.242V56.642C61.408 54.602 62.408 53.194 65.24 52.802H66.584H73.478H74.528C77.36 53.194 78.688 54.6 78.688 56.642V66.206C78.688 67.86 78.258 68.748 76.856 69.324L79.832 72H75.512L73.372 70.08H70.858L66.586 70.104C65.968 70.104 65.316 70.018 64.6 69.822C62.452 69.236 61.408 68.108 61.408 66.242ZM65.248 66.242C65.444 67.176 66.194 68.162 67.528 68.162H71.256L69.12 66.242H73.47L74.508 67.206C74.508 67.206 74.88 66.902 74.88 66.242C74.88 65.582 74.848 56.642 74.848 56.642C74.652 55.774 73.772 54.722 72.472 54.722H67.53C66.032 54.722 65.25 55.818 65.25 56.838L65.248 66.242Z" fill="url(#paint1_linear_212_39)"/>
<path d="M92.398 50.778C90.336 50.722 88.762 50.914 87.416 51.48C87.034 51.642 86.424 51.646 86.36 52.126C86.57 52.346 86.602 52.676 86.77 52.946C87.09 53.466 87.634 54.164 88.118 54.528C88.648 54.928 89.194 55.356 89.76 55.702C90.768 56.316 91.894 56.668 92.866 57.284C93.438 57.646 94.006 58.106 94.566 58.514C94.842 58.718 95.026 59.032 95.386 59.16C95.386 59.14 95.386 59.122 95.386 59.102C95.198 58.862 95.148 58.532 94.976 58.28C94.722 58.026 94.468 57.772 94.214 57.518C93.47 56.53 92.522 55.66 91.518 54.94C90.716 54.364 88.922 53.586 88.586 52.654C88.566 52.634 88.548 52.616 88.526 52.594C89.094 52.53 89.76 52.324 90.284 52.184C91.166 51.948 91.952 52.01 92.862 51.774C93.272 51.656 93.682 51.54 94.092 51.422C94.092 51.344 94.092 51.266 94.092 51.188C93.632 50.716 93.302 50.092 92.802 49.664C91.488 48.546 90.056 47.43 88.582 46.498C87.764 45.982 86.752 45.646 85.886 45.208C85.594 45.06 85.082 44.984 84.89 44.74C84.434 44.16 84.188 43.422 83.836 42.748C83.1 41.332 82.376 39.784 81.726 38.294C81.28 37.278 80.99 36.274 80.436 35.362C77.774 30.986 74.908 28.344 70.472 25.748C69.528 25.196 68.39 24.978 67.188 24.692C66.542 24.654 65.898 24.614 65.252 24.574C64.858 24.408 64.45 23.928 64.078 23.694C62.608 22.764 58.836 20.744 57.748 23.4C57.06 25.076 58.776 26.712 59.39 27.562C59.82 28.158 60.372 28.826 60.68 29.498C60.882 29.938 60.918 30.38 61.09 30.846C61.516 31.994 62.19 33.302 62.742 34.364C63.02 34.902 63.328 35.466 63.68 35.946C63.896 36.24 64.266 36.37 64.326 36.826C63.964 37.332 63.944 38.118 63.74 38.762C62.824 41.652 63.17 45.242 64.502 47.378C64.91 48.034 65.874 49.442 67.198 48.902C68.356 48.43 68.098 46.968 68.428 45.678C68.502 45.386 68.456 45.172 68.604 44.976C68.604 44.996 68.604 45.014 68.604 45.036C68.956 45.738 69.306 46.444 69.66 47.146C70.442 48.404 71.828 49.718 73 50.606C73.608 51.066 74.088 51.862 74.876 52.13C74.876 52.11 74.876 52.092 74.876 52.07C74.856 52.07 74.838 52.07 74.816 52.07C74.664 51.832 74.424 51.734 74.23 51.542C73.772 51.092 73.26 50.534 72.882 50.018C71.814 48.568 70.87 46.98 70.01 45.328C69.6 44.538 69.242 43.67 68.896 42.866C68.762 42.556 68.764 42.088 68.486 41.928C68.106 42.516 67.55 42.992 67.256 43.686C66.788 44.796 66.726 46.152 66.554 47.554C66.45 47.59 66.496 47.566 66.436 47.612C65.62 47.414 65.332 46.576 65.028 45.854C64.26 44.03 64.118 41.094 64.794 38.996C64.968 38.452 65.758 36.742 65.44 36.24C65.288 35.738 64.784 35.448 64.504 35.066C64.154 34.594 63.808 33.97 63.566 33.424C62.938 32.002 62.342 30.348 61.68 28.91C61.364 28.222 60.83 27.528 60.39 26.918C59.904 26.242 59.358 25.744 58.982 24.926C58.848 24.636 58.666 24.17 58.864 23.87C58.928 23.668 59.016 23.584 59.216 23.518C59.556 23.254 60.502 23.604 60.858 23.752C61.798 24.142 62.582 24.514 63.378 25.042C63.76 25.296 64.146 25.786 64.608 25.922C64.784 25.922 64.96 25.922 65.136 25.922C65.962 26.112 66.886 25.982 67.656 26.216C69.02 26.63 70.24 27.274 71.348 27.974C74.728 30.108 77.49 33.144 79.38 36.768C79.684 37.352 79.816 37.908 80.082 38.526C80.622 39.774 81.304 41.058 81.84 42.278C82.376 43.496 82.9 44.724 83.658 45.738C84.058 46.27 85.598 46.556 86.296 46.852C86.786 47.06 87.59 47.274 88.054 47.554C88.942 48.09 89.802 48.728 90.632 49.312C91.056 49.606 92.334 50.248 92.398 50.778Z" fill="url(#paint2_linear_212_39)"/>
<path d="M66.196 28.446C65.766 28.438 65.462 28.492 65.14 28.564C65.14 28.584 65.14 28.602 65.14 28.624C65.16 28.624 65.178 28.624 65.2 28.624C65.406 29.044 65.766 29.318 66.02 29.68C66.216 30.09 66.41 30.5 66.606 30.91C66.626 30.89 66.644 30.872 66.664 30.852C67.026 30.596 67.194 30.188 67.192 29.562C67.046 29.408 67.024 29.216 66.898 29.034C66.73 28.788 66.406 28.65 66.196 28.446Z" fill="#00796B"/>
<defs>
<linearGradient id="paint0_linear_212_39" x1="19.6" y1="50.472" x2="22.162" y2="73.798" gradientUnits="userSpaceOnUse">
<stop stop-color="#058F92"/>
<stop offset="0.5" stop-color="#038489"/>
<stop offset="1" stop-color="#026D71"/>
</linearGradient>
<linearGradient id="paint1_linear_212_39" x1="68.448" y1="51.288" x2="70.202" y2="70.434" gradientUnits="userSpaceOnUse">
<stop stop-color="#FF9C0F"/>
<stop offset="0.813" stop-color="#D67E00"/>
</linearGradient>
<linearGradient id="paint2_linear_212_39" x1="70.058" y1="23.432" x2="80.71" y2="53.5" gradientUnits="userSpaceOnUse">
<stop stop-color="#058F92"/>
<stop offset="0.5" stop-color="#038489"/>
<stop offset="1" stop-color="#026D71"/>
</linearGradient>
</defs>
</svg>
