<svg width="96" height="96" viewBox="0 0 96 96" fill="none" xmlns="http://www.w3.org/2000/svg">
<path d="M16 10C16 14.4183 12.4183 18 8 18C3.58172 18 0 14.4183 0 10C0 5.58172 3.58172 2 8 2C12.4183 2 16 5.58172 16 10Z" fill="#09467D"/>
<path fill-rule="evenodd" clip-rule="evenodd" d="M44 18C30.7452 18 20 28.7452 20 42V70C20 83.2548 30.7452 94 44 94H72C85.2548 94 96 83.2548 96 70V42C96 28.7452 85.2548 18 72 18H44ZM49 40C49 45.5228 44.5228 50 39 50C33.4772 50 29 45.5228 29 40C29 34.4772 33.4772 30 39 30C44.5228 30 49 34.4772 49 40ZM87 70C87 78.8366 79.8366 86 71 86C62.1634 86 55 78.8366 55 70C55 61.1634 62.1634 54 71 54C79.8366 54 87 61.1634 87 70Z" fill="#09467D"/>
</svg>
