<svg width="96" height="96" viewBox="0 0 96 96" fill="none" xmlns="http://www.w3.org/2000/svg">
<path d="M88.166 59.58C87.8 57.922 86.296 55.988 83.262 55.988C82.642 55.988 81.964 56.066 81.192 56.226C79.776 56.518 78.57 56.66 77.508 56.708C85.774 42.628 91.14 23.07 85.826 16.28C78.824 7.33401 69.398 5.99801 64.404 5.99801L63.934 6.00001C62.076 6.03001 60.148 6.25801 58.208 6.67801L51.042 8.22601C50.066 8.10401 49.072 8.01801 48.036 8.00001H47.976H47.944L47.64 7.99801C44.454 7.99801 41.548 8.67401 38.958 9.94401L36.456 8.95801C33.016 7.60201 27.84 5.98801 22.72 5.98801C22.432 5.98801 22.146 5.99401 21.858 6.00401C16.814 6.18601 12.482 8.10001 9.32799 11.538C5.39199 15.83 3.59999 22.108 4.00599 30.2C4.02599 30.618 8.92199 72 22.8 72H22.85L22.978 71.998C24.78 71.954 26.498 71.23 28.104 69.844C29.33 70.764 30.916 71.308 32.394 71.524C33.37 71.754 35.126 72.08 37.23 72.08C39.798 72.08 42.114 71.554 44.11 70.604C44.108 72.364 44.098 74.592 44.078 77.44L44.076 77.59L44.086 77.74C44.28 80.578 44.77 83.136 45.508 85.142C47.61 90.86 51.24 94.01 55.73 94.01C55.916 94.01 56.106 94.004 56.298 93.992C59.99 93.764 63.732 91.69 66.306 88.448C69.092 84.938 69.736 81.234 69.984 78.396L70 78.222V78.046V69.888L70.206 69.908L71.078 69.984L71.162 69.992L71.246 69.996C71.494 70.008 71.75 70.012 72.008 70.012C75.022 70.012 78.732 69.23 81.24 68.064C83.638 66.952 89.118 63.896 88.166 59.58Z" fill="white"/>
<path d="M66 68C66 67.59 66.024 67.248 66.036 66.87C66.016 66.368 66 66 66 66C66 66 66.024 65.982 66.064 65.956C66.362 60.61 67.836 58.55 69.414 57.376C69.194 57.07 68.94 56.74 68.702 56.426C68.036 55.552 67.206 54.468 66.318 53.078L66.154 52.762C66.02 52.434 65.696 51.868 65.284 51.124C62.918 46.844 57.994 37.94 61.364 32.316C62.84 29.852 65.608 28.432 69.606 28.082C67.972 23.436 61.85 12.23 47.97 12C47.966 12 47.962 12 47.958 12C35.876 11.804 31.906 22.784 30.614 29.344C32.394 28.59 34.426 28.132 36.286 28.132C36.314 28.132 36.344 28.132 36.372 28.132C40.952 28.166 44.102 30.61 45.018 34.84C45.688 37.944 46.01 40.66 46.002 43.146C45.982 48.584 44.886 51.444 43.918 53.968L43.61 54.784C43.362 55.452 43.1 56.074 42.852 56.658C42.6 57.254 42.378 57.784 42.216 58.262C43.184 58.482 43.944 58.792 44.466 59.022L44.768 59.154C44.862 59.194 44.956 59.24 45.042 59.292C46.738 60.324 47.794 61.91 48.02 63.758C48.142 64.754 48.122 71.544 48.08 77.468C48.254 80.038 48.69 82.196 49.266 83.76C50.084 85.988 52.128 90.242 56.054 89.998C58.794 89.828 61.428 88.16 63.176 85.96C65.052 83.598 65.744 80.986 66.004 78.044V68H66Z" fill="#0277BD"/>
<path d="M30.228 57.834C27.002 54.468 25.43 49.94 26.02 45.722C26.59 41.652 26.268 37.668 26.094 35.526C26.036 34.812 25.998 34.28 26 33.986C26 33.97 26.004 33.956 26.006 33.94C26.006 33.932 26.002 33.926 26.002 33.918C26.244 27.876 28.574 18.344 34.988 12.678C31.864 11.448 26.776 9.82599 22 9.99999C14.516 10.272 7.27196 15.448 7.99996 30C8.27396 35.46 14.444 68.206 22.88 68C24.086 67.97 25.338 67.196 26.624 65.648C28.658 63.202 30.634 60.984 32.04 59.44C31.41 58.962 30.802 58.434 30.228 57.834ZM74.046 29.462C74.076 29.77 74.05 30.034 74.002 30.278C74.064 32.118 73.866 33.904 73.664 35.632C73.516 36.904 73.364 38.218 73.322 39.536C73.28 40.826 73.462 42.1 73.654 43.448C74.104 46.604 74.572 50.166 72.124 54.322C72.574 54.914 72.97 55.464 73.286 55.996C82.506 41.046 86.222 23.274 82.676 18.744C77.31 11.888 69.882 9.90399 63.998 9.99999C62.156 10.03 60.482 10.278 59.052 10.588C69.204 15.508 73.726 26.052 74.046 29.462ZM82 60.142C76.67 61.242 74.106 60.656 72.862 59.89C72.662 60.034 72.462 60.156 72.276 60.27C71.532 60.72 70.354 61.436 70.066 65.834C70.232 65.866 70.378 65.884 70.558 65.922L71.428 66C74.068 66.12 77.526 65.38 79.554 64.438C83.924 62.41 86.306 59.254 82 60.142ZM44.046 64.238C43.972 63.642 43.65 63.16 43.062 62.774L42.846 62.68C42.124 62.362 41.306 62 40 62H39.992C39.738 62.02 39.486 62.038 39.232 62.038C39.128 62.038 39.026 62.024 38.922 62.02C37.974 62.75 36.626 63.314 33.29 64C27.33 65.518 30.848 67.31 33.134 67.588C35.346 68.142 40.604 68.816 44.096 65.97C44.086 65.074 44.07 64.458 44.046 64.238Z" fill="#0277BD"/>
<path d="M41.362 37.002C40.778 37.606 39.856 38.134 38.838 37.97C37.182 37.702 35.912 35.704 36.004 34.954C36.092 34.206 37.506 33.816 39.16 34.084C39.734 34.178 40.256 34.34 40.696 34.54C40.056 33.164 38.898 32.37 37.132 32.176C34.002 31.828 30.68 33.464 30.012 34.37C30.026 34.59 30.052 34.872 30.078 35.204C30.264 37.498 30.608 41.772 29.978 46.278C29.562 49.248 30.764 52.616 33.112 55.068C34.626 56.648 36.394 57.648 38.138 57.944C38.36 56.988 38.756 56.056 39.164 55.094C39.39 54.564 39.63 54 39.856 53.39L40.18 52.536C41.066 50.226 41.98 47.836 41.998 43.13C42.006 41.32 41.784 39.254 41.362 37.002ZM69.694 44.014C69.486 42.556 69.272 41.046 69.324 39.408C69.37 37.924 69.534 36.524 69.692 35.17C69.816 34.104 69.912 33.08 69.968 32.07C67.39 32.284 65.678 33.028 64.866 34.286C65.202 34.172 65.582 34.082 66.002 34.028C67.786 33.796 69.088 34.31 69.238 35.302C69.348 36.028 68.732 36.712 68.462 36.974C67.908 37.512 67.21 37.858 66.5 37.95C66.372 37.966 66.242 37.974 66.116 37.974C65.41 37.974 64.736 37.732 64.218 37.374C64.442 41.32 67.352 46.598 68.784 49.188C69.09 49.742 69.326 50.184 69.522 50.564C70.308 48.326 70.018 46.286 69.694 44.014Z" fill="#0277BD"/>
</svg>
