<svg width="96" height="96" viewBox="0 0 96 96" fill="none" xmlns="http://www.w3.org/2000/svg">
<path d="M48 41.6C44.464 41.6 41.6 44.464 41.6 48C41.6 51.536 44.464 54.4 48 54.4C51.536 54.4 54.4 51.536 54.4 48C54.4 44.464 51.536 41.6 48 41.6Z" fill="#51C2E0"/>
<path d="M48 34.4C68.0224 34.4 80.8 42.4544 80.8 48C80.8 50.8128 77.7536 54.016 72.6496 56.5664C66.2528 59.7664 57.2672 61.6 48 61.6C27.9776 61.6 15.2 53.5456 15.2 48C15.2 45.1872 18.2464 41.984 23.3504 39.4336C29.7472 36.2336 38.7328 34.4 48 34.4ZM48 28.8C26.7936 28.8 9.59998 37.3952 9.59998 48C9.59998 58.6048 26.7936 67.2 48 67.2C69.2064 67.2 86.4 58.6048 86.4 48C86.4 37.3952 69.2064 28.8 48 28.8Z" fill="#51C2E0"/>
<path d="M34.1728 18.9792C40.368 18.9792 51.4464 26.768 59.7792 41.2C64.4128 49.2256 67.3184 57.9232 67.744 65.0624C68.0864 70.7584 66.8352 74.9984 64.4 76.4064C63.68 76.8224 62.8416 77.024 61.8272 77.024C55.632 77.024 44.5536 69.2352 36.2208 54.8032C31.5872 46.7776 28.6816 38.08 28.256 30.9408C27.9136 25.2448 29.1648 21.0048 31.6 19.5968C32.32 19.1808 33.1584 18.9792 34.1728 18.9792ZM34.1728 13.3792C32.2176 13.3792 30.4064 13.8208 28.8 14.7456C19.616 20.048 20.768 39.2352 31.3728 57.6C40.1248 72.7584 52.5824 82.6208 61.8304 82.6208C63.7856 82.6208 65.5968 82.1792 67.2032 81.2544C76.3872 75.952 75.2352 56.7648 64.6304 38.4C55.8752 23.2416 43.4176 13.3792 34.1728 13.3792Z" fill="#51C2E0"/>
<path d="M61.8272 18.9792C62.8384 18.9792 63.68 19.1808 64.4 19.5968C66.8352 21.0016 68.0864 25.2448 67.744 30.9408C67.3152 38.08 64.4128 46.7776 59.7792 54.8032C51.4464 69.2384 40.368 77.024 34.1728 77.024C33.1616 77.024 32.32 76.8224 31.6 76.4064C29.1648 75.0016 27.9136 70.7584 28.256 65.0624C28.6848 57.9232 31.5872 49.2256 36.2208 41.2C44.5568 26.7648 55.6352 18.9792 61.8272 18.9792ZM61.8272 13.3792C52.5792 13.3792 40.1248 23.2416 31.3696 38.4C20.768 56.768 19.616 75.952 28.8 81.2544C30.4032 82.1792 32.2144 82.6208 34.1728 82.6208C43.4208 82.6208 55.8752 72.7584 64.6304 57.6C75.232 39.232 76.384 20.048 67.2 14.7456C65.5968 13.8176 63.7856 13.3792 61.8272 13.3792Z" fill="#51C2E0"/>
</svg>
