<svg width="96" height="96" viewBox="0 0 96 96" fill="none" xmlns="http://www.w3.org/2000/svg">
<path d="M83.79 1.92376C80.9803 1.84586 77.9745 3.39526 74.9925 6.04126C74.284 6.67102 73.5764 7.37005 72.8737 8.11501C64.7137 16.7723 57.1376 32.8068 54.7837 45.0525C55.6996 46.9111 56.4189 49.285 56.8912 51.0975C57.0122 51.5622 57.1198 51.9963 57.2062 52.3688C57.4136 53.2481 57.525 53.8163 57.525 53.8163C57.525 53.8163 57.4532 53.5404 57.1537 52.6688C57.0961 52.5017 57.0299 52.3213 56.955 52.1063C56.9223 52.0179 56.8811 51.9102 56.8312 51.795C56.2994 50.5566 54.8252 47.9442 54.1762 46.8075C53.6213 48.4434 53.1339 49.9719 52.725 51.3563C54.5951 54.7796 55.7325 60.645 55.7325 60.645C55.7325 60.645 55.6366 60.2655 55.1662 58.9388C54.7496 57.7656 52.6709 54.1212 52.1775 53.2688C51.3346 56.3792 50.9985 58.4805 51.3 58.9913C51.8856 59.982 52.4454 61.6882 52.935 63.5775C53.1059 64.2322 53.2651 64.9079 53.4187 65.5838C52.9099 70.0516 52.7905 74.5396 53.0362 78.9825C53.2916 83.7979 53.9652 88.5514 54.7275 93.24C54.8081 93.7335 55.2613 94.0905 55.7662 94.0425C56.2942 93.9926 56.6824 93.5243 56.6325 92.9963C56.3925 90.4407 56.1893 87.8921 56.0587 85.35L56.175 86.49C55.9926 84.2071 55.9421 81.7495 56.04 79.1325C56.3875 69.8512 58.5256 58.6572 62.4712 46.9913C69.1394 29.381 78.3884 15.2481 86.8537 8.50126C79.1372 15.4709 68.6945 38.0298 65.5687 46.3838C62.0686 55.738 59.5869 64.5147 58.0912 72.9263C60.6717 65.0408 69.0112 61.6538 69.0112 61.6538C69.0112 61.6538 73.1048 56.6064 77.8837 49.3988C75.021 50.0516 70.3156 51.1701 68.7412 51.8325C66.418 52.8079 65.7937 53.1413 65.7937 53.1413C65.7937 53.1413 73.3187 48.5568 79.7737 46.4813C88.6537 32.496 98.3283 12.6274 88.5862 3.93751C87.0893 2.60263 85.4758 1.97051 83.79 1.92376Z" fill="#003B57"/>
<path d="M9.6001 13.44C9.6001 9.19681 13.0369 5.76001 17.2801 5.76001H69.8101C55.2699 21.433 49.7305 47.915 48.4613 52.2638C46.9829 57.755 47.1361 59.5013 48.0001 60.9413C48.1153 61.1525 48.5585 62.0144 49.2113 64.5488C49.3265 64.952 49.4224 65.3747 49.5376 65.8163C49.0576 70.2131 48.9617 74.7269 49.2113 79.1813C49.3073 80.9669 49.4393 82.752 49.6313 84.48H17.2801C13.0369 84.48 9.6001 81.0432 9.6001 76.8V13.44Z" fill="url(#paint0_linear_215_2)"/>
<defs>
<linearGradient id="paint0_linear_215_2" x1="39.7051" y1="5.76001" x2="39.7051" y2="84.48" gradientUnits="userSpaceOnUse">
<stop stop-color="#97D9F6"/>
<stop offset="1" stop-color="#0F80CC"/>
</linearGradient>
</defs>
</svg>
