<svg width="96" height="96" viewBox="0 0 96 96" fill="none" xmlns="http://www.w3.org/2000/svg">
<path d="M0 24H96V80C96 82.2091 94.2091 84 92 84H4C1.79086 84 0 82.2091 0 80V24Z" fill="#373737"/>
<path d="M0 16C0 13.7909 1.79086 12 4 12H32V24H0V16Z" fill="#CCCCCC"/>
<path d="M32 12H64V24H32V12Z" fill="#999999"/>
<path d="M64 12H92C94.2091 12 96 13.7909 96 16V24H64V12Z" fill="#666666"/>
<path d="M46 66C46 64.8954 46.8954 64 48 64H76C77.1046 64 78 64.8954 78 66V72C78 73.1046 77.1046 74 76 74H48C46.8954 74 46 73.1046 46 72V66Z" fill="#DDDDDD"/>
<path d="M10.4142 71.0417C9.63317 70.2606 9.63316 68.9943 10.4142 68.2132L30.6473 47.9801C31.4284 47.1991 32.6947 47.1991 33.4757 47.9801L37.9531 52.4575C38.7341 53.2385 38.7341 54.5049 37.9531 55.2859L17.72 75.519C16.939 76.3001 15.6726 76.3001 14.8916 75.519L10.4142 71.0417Z" fill="#9F9F9F"/>
<path d="M15.3762 32.6766C16.1573 31.8956 17.4236 31.8956 18.2047 32.6766L38.0036 52.4756C38.7847 53.2566 38.7847 54.523 38.0036 55.304L33.761 59.5467C32.98 60.3277 31.7136 60.3277 30.9326 59.5467L11.1336 39.7477C10.3525 38.9666 10.3525 37.7003 11.1336 36.9192L15.3762 32.6766Z" fill="#DCDCDC"/>
</svg>
