<svg width="96" height="96" viewBox="0 0 96 96" fill="none" xmlns="http://www.w3.org/2000/svg">
<path d="M12 16C12 13.7909 13.7909 12 16 12H80C82.2091 12 84 13.7909 84 16V80C84 82.2091 82.2091 84 80 84H16C13.7909 84 12 82.2091 12 80V16Z" fill="#1B95EA"/>
<path d="M59.664 67.648C60.564 68.618 61.282 69.644 62.232 70.366C64.294 71.934 66.626 72.208 69.034 71.192C70.192 70.704 70.868 69.76 70.908 68.492C70.944 67.372 70.404 66.454 69.426 65.94C67.542 64.952 65.566 64.134 63.704 63.106C62.036 62.186 60.294 61.274 58.894 60.014C55.184 56.674 55.192 50.13 58.63 46.78C60.5 44.958 62.758 44.078 65.378 44.01C73.998 44.01 75.936 49.442 75.936 49.442C74.506 50.476 70.508 53.048 70.508 53.048C69.792 51.95 68.328 50.556 67.014 50.308C65.362 49.998 63.828 50.626 63.304 51.904C62.7 53.378 63.224 54.836 64.868 55.714C66.826 56.758 68.862 57.66 70.862 58.628C72.822 59.576 74.698 60.664 76.046 62.426C79.454 66.884 78.776 75.414 70.972 77.438C66.706 78.544 62.536 78.292 58.618 76.002C56.772 74.924 55.052 72.84 53.996 71.026C54 71.026 57.934 68.658 59.664 67.648Z" fill="white"/>
<path d="M28 44V50.068H37.944V77.944H43.93L44.036 50.068H54V44H28Z" fill="white"/>
</svg>
