<svg width="96" height="96" viewBox="0 0 96 96" fill="none" xmlns="http://www.w3.org/2000/svg">
<path d="M14 12H44C45.104 12 46 12.896 46 14V44C46 45.104 45.104 46 44 46H14C12.896 46 12 45.104 12 44V14C12 12.896 12.896 12 14 12Z" fill="url(#paint0_linear_1_2043)"/>
<path d="M50.084 43.916V14C50.084 12.896 50.98 12 52.084 12H82C83.104 12 84 12.896 84 14V43.916C84 45.02 83.104 45.916 82 45.916H52.084C50.978 45.916 50.084 45.022 50.084 43.916Z" fill="url(#paint1_linear_1_2043)"/>
<path d="M14 50H44C45.104 50 46 50.896 46 52V82C46 83.104 45.104 84 44 84H14C12.896 84 12 83.104 12 82V52C12 50.896 12.896 50 14 50Z" fill="url(#paint2_linear_1_2043)"/>
<path d="M84 52V82C84 83.104 83.104 84 82 84H52C50.896 84 50 83.104 50 82V52C50 50.896 50.896 50 52 50H82C83.104 50 84 50.896 84 52Z" fill="url(#paint3_linear_1_2043)"/>
<defs>
<linearGradient id="paint0_linear_1_2043" x1="12" y1="84" x2="84" y2="12" gradientUnits="userSpaceOnUse">
<stop stop-color="#54DAFF"/>
<stop offset="1" stop-color="#25A2E5"/>
</linearGradient>
<linearGradient id="paint1_linear_1_2043" x1="11.8217" y1="84.1783" x2="84" y2="12" gradientUnits="userSpaceOnUse">
<stop stop-color="#31ABEC"/>
<stop offset="1" stop-color="#1582D5"/>
</linearGradient>
<linearGradient id="paint2_linear_1_2043" x1="12" y1="84" x2="84" y2="12" gradientUnits="userSpaceOnUse">
<stop stop-color="#31ABEC"/>
<stop offset="1" stop-color="#1582D5"/>
</linearGradient>
<linearGradient id="paint3_linear_1_2043" x1="84" y1="50" x2="50" y2="84" gradientUnits="userSpaceOnUse">
<stop stop-color="#1784D8"/>
<stop offset="1" stop-color="#0864C5"/>
</linearGradient>
</defs>
</svg>
