<svg width="96" height="96" viewBox="0 0 96 96" fill="none" xmlns="http://www.w3.org/2000/svg">
<path d="M85.5977 46.7469L67.8512 16.4765C67.6309 16.1006 67.3337 15.784 66.9857 15.5417L48.0001 48.4135L66.9857 80.4669C67.334 80.2269 67.6322 79.9129 67.8543 79.5395L85.5883 49.7203C86.1339 48.803 86.1374 47.6675 85.5977 46.7469Z" fill="#1556BA"/>
<path d="M28.1488 16.4765L10.4023 46.7469C10.1047 47.2544 9.97231 47.8273 10.0048 48.3929H48.0001L66.9857 15.5417C66.4878 15.195 65.8859 15 65.2558 15H30.7442C29.6737 15 28.6844 15.5628 28.1488 16.4765Z" fill="#4A91DF"/>
<path d="M30.7318 81H65.2682C65.8929 81 66.4901 80.8083 66.9857 80.4669L48.0001 48.3845H10.0043C10.0296 48.8477 10.1654 49.3062 10.4117 49.7203L28.1457 79.5395C28.6838 80.4442 29.6679 81 30.7318 81Z" fill="#3375C9"/>
<path fill-rule="evenodd" clip-rule="evenodd" d="M69.8661 49.5062C70.2458 48.8823 70.2458 48.1028 69.8661 47.4789L61.7983 34.2232C61.6084 33.9113 61.6084 33.5216 61.7983 33.2096L66.6068 25.309C66.9999 24.6631 67.9529 24.6734 68.3315 25.3275L81.1845 47.5291C81.5406 48.1441 81.5344 48.9002 81.1684 49.5095L67.8775 71.6348C67.4833 72.2909 66.5149 72.2757 66.1421 71.6075L61.7666 63.7647C61.5952 63.4576 61.6023 63.0838 61.7853 62.7832L69.8661 49.5062Z" fill="#E4E4E4"/>
<path fill-rule="evenodd" clip-rule="evenodd" d="M30.2244 21.4009C30.4032 21.0973 30.7324 20.9105 31.0885 20.9105H39.7825C40.5498 20.9105 41.0308 21.7278 40.6499 22.3845L26.0839 47.4962C25.7326 48.1018 25.7324 48.8453 26.0833 49.4511L40.6514 74.6011C41.0318 75.2578 40.5508 76.0746 39.7837 76.0746H31.0881C30.7322 76.0746 30.4032 75.888 30.2243 75.5847L14.8395 49.5012C14.4786 48.8894 14.4784 48.1337 14.8389 47.5216L30.2244 21.4009Z" fill="#ECECEC"/>
</svg>
