<svg width="64" height="20" viewBox="0 0 64 20" fill="none" xmlns="http://www.w3.org/2000/svg">
<g clip-path="url(#clip0_1419_24)">
<path d="M0 3C0 1.34315 1.34315 0 3 0H41V20H3C1.34315 20 0 18.6569 0 17V3Z" fill="#09467D"/>
<path d="M10.0166 13.7236H9.00684V10.3076C9.00684 10.0319 8.99072 9.77409 8.9585 9.53418C8.92627 9.29069 8.86719 9.10091 8.78125 8.96484C8.69173 8.81445 8.56283 8.70345 8.39453 8.63184C8.22624 8.55664 8.00781 8.51904 7.73926 8.51904C7.46354 8.51904 7.17529 8.58708 6.87451 8.72314C6.57373 8.85921 6.28548 9.03288 6.00977 9.24414V13.7236H5V7.72412H6.00977V8.39014C6.32487 8.12874 6.65072 7.92464 6.9873 7.77783C7.32389 7.63102 7.66943 7.55762 8.02393 7.55762C8.67204 7.55762 9.16618 7.75277 9.50635 8.14307C9.84652 8.53337 10.0166 9.09554 10.0166 9.82959V13.7236Z" fill="#F5F5F5"/>
<path d="M16.9346 13.7236H15.9248V13.0576C15.5846 13.3262 15.2588 13.5321 14.9473 13.6753C14.6357 13.8185 14.292 13.8901 13.916 13.8901C13.2858 13.8901 12.7952 13.6986 12.4443 13.3154C12.0934 12.9287 11.918 12.363 11.918 11.6182V7.72412H12.9277V11.1401C12.9277 11.4445 12.9421 11.7059 12.9707 11.9243C12.9993 12.1392 13.0602 12.3236 13.1533 12.4775C13.25 12.6351 13.3753 12.7497 13.5293 12.8213C13.6833 12.8929 13.9071 12.9287 14.2007 12.9287C14.4621 12.9287 14.7467 12.8607 15.0547 12.7246C15.3662 12.5885 15.6562 12.4149 15.9248 12.2036V7.72412H16.9346V13.7236Z" fill="#F5F5F5"/>
<path d="M23.7881 13.0415C23.7881 14.0584 23.5571 14.805 23.0952 15.2812C22.6333 15.7575 21.9225 15.9956 20.9629 15.9956C20.6442 15.9956 20.3327 15.9723 20.0283 15.9258C19.7275 15.8828 19.4303 15.8201 19.1367 15.7378V14.7065H19.1904C19.3551 14.771 19.6165 14.8498 19.9746 14.9429C20.3327 15.0396 20.6908 15.0879 21.0488 15.0879C21.3926 15.0879 21.6772 15.0467 21.9028 14.9644C22.1284 14.882 22.3039 14.7674 22.4292 14.6206C22.5545 14.481 22.644 14.3127 22.6978 14.1157C22.7515 13.9188 22.7783 13.6986 22.7783 13.4551V12.9072C22.474 13.1507 22.1821 13.3333 21.9028 13.4551C21.6271 13.5732 21.2744 13.6323 20.8447 13.6323C20.1286 13.6323 19.5592 13.3745 19.1367 12.8589C18.7178 12.3397 18.5083 11.6092 18.5083 10.6675C18.5083 10.1519 18.5799 9.70785 18.7231 9.33545C18.87 8.95947 19.0687 8.63542 19.3193 8.36328C19.5521 8.10905 19.835 7.91211 20.168 7.77246C20.501 7.62923 20.8322 7.55762 21.1616 7.55762C21.509 7.55762 21.799 7.59342 22.0317 7.66504C22.2681 7.73307 22.5169 7.8387 22.7783 7.98193L22.8428 7.72412H23.7881V13.0415ZM22.7783 12.0747V8.80371C22.5098 8.68197 22.2591 8.59603 22.0264 8.5459C21.7972 8.49219 21.568 8.46533 21.3389 8.46533C20.7839 8.46533 20.347 8.65153 20.0283 9.02393C19.7096 9.39632 19.5503 9.93701 19.5503 10.646C19.5503 11.3192 19.6685 11.8294 19.9048 12.1768C20.1411 12.5241 20.5332 12.6978 21.0811 12.6978C21.3747 12.6978 21.6683 12.6423 21.9619 12.5312C22.2591 12.4167 22.5312 12.2645 22.7783 12.0747Z" fill="#F5F5F5"/>
<path d="M30.7974 10.8286H26.377C26.377 11.1974 26.4325 11.5197 26.5435 11.7954C26.6545 12.0675 26.8066 12.2913 27 12.4668C27.1862 12.6387 27.4064 12.7676 27.6606 12.8535C27.9185 12.9395 28.2013 12.9824 28.5093 12.9824C28.9175 12.9824 29.3275 12.9019 29.7393 12.7407C30.1546 12.576 30.45 12.4149 30.6255 12.2573H30.6792V13.3584C30.339 13.5016 29.9917 13.6216 29.6372 13.7183C29.2827 13.8149 28.9103 13.8633 28.52 13.8633C27.5246 13.8633 26.7476 13.5947 26.189 13.0576C25.6304 12.5169 25.3511 11.7507 25.3511 10.7588C25.3511 9.77767 25.6178 8.99886 26.1514 8.42236C26.6885 7.84587 27.3939 7.55762 28.2676 7.55762C29.0768 7.55762 29.6999 7.79395 30.1367 8.2666C30.5771 8.73926 30.7974 9.41064 30.7974 10.2808V10.8286ZM29.8145 10.0552C29.8109 9.52523 29.6766 9.11523 29.4116 8.8252C29.1502 8.53516 28.751 8.39014 28.2139 8.39014C27.6732 8.39014 27.2417 8.54948 26.9194 8.86816C26.6007 9.18685 26.4199 9.58252 26.377 10.0552H29.8145Z" fill="#F5F5F5"/>
<path d="M35.4434 13.6699C35.2536 13.7201 35.0459 13.7612 34.8203 13.7935C34.5983 13.8257 34.3996 13.8418 34.2241 13.8418C33.6118 13.8418 33.1463 13.6771 32.8276 13.3477C32.509 13.0182 32.3496 12.4901 32.3496 11.7632V8.57275H31.6675V7.72412H32.3496V6H33.3594V7.72412H35.4434V8.57275H33.3594V11.3066C33.3594 11.6217 33.3665 11.8688 33.3809 12.0479C33.3952 12.2233 33.4453 12.388 33.5312 12.542C33.61 12.6852 33.7174 12.7909 33.8535 12.8589C33.9932 12.9233 34.2044 12.9556 34.4873 12.9556C34.652 12.9556 34.8239 12.9323 35.0029 12.8857C35.182 12.8356 35.3109 12.7944 35.3896 12.7622H35.4434V13.6699Z" fill="#F5F5F5"/>
<path d="M41 0H61C62.6569 0 64 1.34315 64 3V17C64 18.6569 62.6569 20 61 20H41V0Z" fill="#09467D"/>
<path d="M47.3333 4.45833C47.3333 5.10267 46.811 5.625 46.1667 5.625C45.5223 5.625 45 5.10267 45 4.45833C45 3.814 45.5223 3.29167 46.1667 3.29167C46.811 3.29167 47.3333 3.814 47.3333 4.45833Z" fill="#F5F5F5"/>
<path fill-rule="evenodd" clip-rule="evenodd" d="M51.4167 5.625C49.4837 5.625 47.9167 7.192 47.9167 9.125V13.2083C47.9167 15.1413 49.4837 16.7083 51.4167 16.7083H55.5C57.433 16.7083 59 15.1413 59 13.2083V9.125C59 7.192 57.433 5.625 55.5 5.625H51.4167ZM52.1458 8.83333C52.1458 9.63875 51.4929 10.2917 50.6875 10.2917C49.8821 10.2917 49.2292 9.63875 49.2292 8.83333C49.2292 8.02792 49.8821 7.375 50.6875 7.375C51.4929 7.375 52.1458 8.02792 52.1458 8.83333ZM57.6875 13.2083C57.6875 14.497 56.6428 15.5417 55.3542 15.5417C54.0655 15.5417 53.0208 14.497 53.0208 13.2083C53.0208 11.9197 54.0655 10.875 55.3542 10.875C56.6428 10.875 57.6875 11.9197 57.6875 13.2083Z" fill="#F5F5F5"/>
</g>
<defs>
<clipPath id="clip0_1419_24">
<rect width="64" height="20" fill="white"/>
</clipPath>
</defs>
</svg>
